<svg id="图层_1" data-name="图层 1" xmlns="http://www.w3.org/2000/svg" viewBox="0 0 138.54 88.49"><defs><style>.cls-1{fill:#00065d;}.cls-2{fill:#006fd0;}</style></defs><title>11</title><path class="cls-1" d="M200.22,174.77l1.45-7.84c.87-.05,2-1.38,2.85-3.6a10.88,10.88,0,0,0,1-5.13c-.17-.9-.76,0-1.72,1.12l-1.19,1.41c-1.28,1.48-2.19,1.63-2.68-.87-.71-3.62.59-11.24,2.9-17.1,1.32-3.38,2.83-5.44,4.14-5.85l-1.18,7.35a5.27,5.27,0,0,0-2.23,3,10,10,0,0,0-.87,4.79c.17.84.73,0,1.84-1.32l1.27-1.52c1.33-1.63,2-1.47,2.48.88.72,3.68-.4,11-3.12,17.95C203.69,171.75,202,174.57,200.22,174.77Z" transform="translate(-199.71 -102.91)"/><path class="cls-1" d="M212.46,130l6.07-4.62-.6,13.82.15-.12,5.13-10.3,6.68-5.09-6.47,12.82,6.17,5.18-6.07,4.62-3.71-3.78-2.17,4.06-.2,4.34-6.07,4.62Z" transform="translate(-199.71 -102.91)"/><path class="cls-1" d="M231.53,146.14l1.39-4.48a4.63,4.63,0,0,0,1.71-.45,6.59,6.59,0,0,0,3.16-3.37l.31-.82-6.76-13.23,6.9-3.17,2,6a36.3,36.3,0,0,1,1.18,4.55l.17-.08c.59-1.82,1.27-4.15,1.86-5.94l2.66-8.13,6.67-3.06-8.28,20.61c-2.47,5.48-5,8.65-9.56,10.76A11.11,11.11,0,0,1,231.53,146.14Z" transform="translate(-199.71 -102.91)"/><path class="cls-1" d="M256.41,111.42l6.53-1.7,3.1,6.94,1.16,2.75.15,0,1.68-3.48,4.53-8.92,6.52-1.7-1.75,18.44-5.89,1.53.69-6.16a48.36,48.36,0,0,1,1.34-6.65l-.12,0-2.4,4.83-4.21,7.62-2.36.61-2.87-5.78-1.57-3.8-.12,0a41.92,41.92,0,0,1,.19,6.26l-.61,6.13-5.74,1.49Z" transform="translate(-199.71 -102.91)"/><path class="cls-1" d="M284.93,109.47l6.46-.71-1.45,13.6-6.47.71Zm.17-3.73c-.25-1.26,1.23-2.55,3.41-2.79,1.7-.19,3.53.31,3.78,1.57s-1.23,2.56-3.41,2.8C287.18,107.5,285.36,107.06,285.1,105.74Z" transform="translate(-199.71 -102.91)"/><path class="cls-1" d="M295.74,108.6l5.28.07.34,2.57h.16a7,7,0,0,1,5.61-2.82,6.89,6.89,0,0,1,2.25.29l-1.4,3.6a7.78,7.78,0,0,0-2.16-.23,4.75,4.75,0,0,0-4.23,2.36l-.75,7.34-6.5-.08Z" transform="translate(-199.71 -102.91)"/><path class="cls-1" d="M311.48,109.53l5.14,1.24.35,2.54.16,0a5.48,5.48,0,0,1,5.43-1.45,8.17,8.17,0,0,1,2.18.78l-1.34,3.14a8.07,8.07,0,0,0-2.09-.71,3.72,3.72,0,0,0-4.11,1.31l-.68,6.86-6.32-1.53Z" transform="translate(-199.71 -102.91)"/><path class="cls-1" d="M326.39,117.63c-1.14-5.83,1.83-3.82,5.32,1.54,3,4.65,5.56,10.28,6.29,14,1.15,5.83-1.83,3.82-5.32-1.54C329.64,127,327.12,121.35,326.39,117.63Zm7.52,9.31a13.33,13.33,0,0,0-1.9-4.63c-1.47-2.25-2.17-1.7-1.53,1.55a13.33,13.33,0,0,0,1.9,4.63C333.85,130.74,334.55,130.19,333.91,126.94Z" transform="translate(-199.71 -102.91)"/><path class="cls-2" d="M336.68,143.45l-3.12,5.46-2.46-5.29c-1.07-.38-1.9.18-2.72,1.62a12.92,12.92,0,0,0-1,2l-1.7-1.74a11.29,11.29,0,0,1,1-2.09c1.09-1.92,2.46-2.72,3.52-2.39l.08-.14-.57-2.36,2.54-4.43Z" transform="translate(-199.71 -102.91)"/><path class="cls-2" d="M323.56,161.41c-3.7,3.23-6.41,3.28-6.89.86-.3-1.55.13-2.91,1.47-5l1.27-2c1.1-1.75,1.72-2.57,1.61-3.12s-.77-.67-1.86.29a10.06,10.06,0,0,0-2.33,3.39l-2.75.15a17.55,17.55,0,0,1,4.38-6.23c3.13-2.73,6-3.05,6.51-.67.32,1.65-.34,3.36-1.61,5.37l-1.19,1.87c-.95,1.5-1.59,2.37-1.47,3s.94.54,2-.41a11.67,11.67,0,0,0,2.9-4.42l3.06-.53A18.79,18.79,0,0,1,323.56,161.41Z" transform="translate(-199.71 -102.91)"/><path class="cls-2" d="M316.44,167.17l-4.33,2.57-1.12-2-2.11-.3-1.09,4.89-4.33,2.57,2.08-7.56-6.46-1.22,4.76-2.83,5.15,1,.11-.06-3.56-6.45,4.33-2.57Z" transform="translate(-199.71 -102.91)"/><path class="cls-2" d="M301.4,180.08c-3,1.33-5.2.93-7.88-.76L284,172.43l4.45-1.93,3.41,3c.76.67,1.69,1.59,2.45,2.28l.12,0a25.81,25.81,0,0,1-.43-3.15l-.3-4.41,4.58-2-.59,11,.37.28a2.65,2.65,0,0,0,2.56.14,3.72,3.72,0,0,0,1.06-.68l1.84,1.72A9.15,9.15,0,0,1,301.4,180.08Z" transform="translate(-199.71 -102.91)"/><path class="cls-2" d="M287.3,182.38l-4.84,1.37-3.16-6a4.68,4.68,0,0,0-2.77-.43c-.72.21-1.15.63-1,1.2a3.23,3.23,0,0,0,.42.83l2.92,5.42L274,186.14l-3.22-6a4.63,4.63,0,0,0-2.7-.44c-.79.22-1.22.64-1.11,1.21a3.23,3.23,0,0,0,.42.83l2.92,5.42-4.85,1.36-3.11-5.78a4.72,4.72,0,0,1-.53-1.4c-.35-1.76.57-3,3.05-3.66a9.54,9.54,0,0,1,5.36.29c.28-1.19,1-2.08,3.18-2.7a9.69,9.69,0,0,1,5.14.18l.12,0-.25-1.31,3.93-1.11Z" transform="translate(-199.71 -102.91)"/><path class="cls-2" d="M253.41,178.52c-1.68.27-3.13-.3-3.34-1.35s1-1.72,2.31-1.93c1.68-.27,3.15.37,3.34,1.35S254.71,178.31,253.41,178.52ZM262.07,189l-5,.8L252,180.09l5-.8Z" transform="translate(-199.71 -102.91)"/><path class="cls-2" d="M253.67,190.41l-5,.39-2.82-5.57a5.32,5.32,0,0,0-4-1.59,5.11,5.11,0,0,0-1.6.29l-2.18-2.68a4.6,4.6,0,0,1,1.66-.34,7.67,7.67,0,0,1,5.2,1.87H245l-.52-2,4.08-.32Z" transform="translate(-199.71 -102.91)"/><path class="cls-2" d="M241.36,191.4l-5-.22-2.82-5.77a6.08,6.08,0,0,0-4-2,5.26,5.26,0,0,0-1.61.09l-2.18-2.88a4.62,4.62,0,0,1,1.65-.13,8.87,8.87,0,0,1,5.22,2.44h.13l-.52-2,4.09.17Z" transform="translate(-199.71 -102.91)"/><path class="cls-2" d="M222.87,189.81c-4.2-1.09-9.14-4.74-9.91-8.69-.5-2.53,1.6-3.61,5.25-2.65,4.2,1.09,9.13,4.74,9.91,8.69C228.62,189.69,226.52,190.77,222.87,189.81Zm-1.06-2.75c1.15.3,1.57-.2,1.37-1.22a6.07,6.07,0,0,0-3.91-4.62c-1.15-.3-1.57.21-1.37,1.22A6.07,6.07,0,0,0,221.81,187.06Z" transform="translate(-199.71 -102.91)"/><path class="cls-2" d="M213.76,187.27,210,183.93l-2.39-6.83a15.13,15.13,0,0,0-3.1-4.29,6.53,6.53,0,0,0-1.2-.93L201.53,168a5.42,5.42,0,0,1,1.23.92,22.12,22.12,0,0,1,4,5.41l.09.09-.48-2.08,3.06,2.71Z" transform="translate(-199.71 -102.91)"/></svg>